<svg width="446" height="93" viewBox="0 0 446 93" fill="none" xmlns="http://www.w3.org/2000/svg">
<mask id="mask0_1006_93721" style="mask-type:luminance" maskUnits="userSpaceOnUse" x="0" y="6" width="446" height="81">
<path d="M445.608 6.38672H0.390625V86.3867H445.608V6.38672Z" fill="white"/>
</mask>
<g mask="url(#mask0_1006_93721)">
<path d="M149.308 48.3206C149.308 60.6757 140.418 65.7798 131.365 65.7798C122.272 65.7798 113.422 60.6757 113.422 48.3206V25.9603H121.909V47.551C121.909 55.0453 126.071 57.7996 131.365 57.7996C136.659 57.7996 140.822 55.0453 140.822 47.551V25.9603H149.308V48.3206Z" fill="#0B23A9"/>
<path d="M166.12 12.9163H157.391V64.7669H166.12V12.9163Z" fill="#0B23A9"/>
<path d="M192.611 32.6843H182.588V52.1282C182.588 57.313 185.983 57.2324 192.611 56.9084V64.7669C179.275 66.3874 173.859 62.7418 173.859 52.1282V12.9163H182.588V24.2592H192.611V32.6843Z" fill="#0B23A9"/>
<path d="M279.908 12.9163H271.18V64.7669H279.908V12.9163Z" fill="#0B23A9"/>
<path d="M348.79 32.6843H338.768V52.1282C338.768 57.313 342.163 57.2324 348.79 56.9084V64.7669C335.454 66.3874 330.039 62.7418 330.039 52.1282V12.9163H338.768V24.2592H348.79V32.6843Z" fill="#0B23A9"/>
<path d="M355.213 28.7411H363.945V64.7669H355.213V28.7411ZM355.622 21.0446C353.439 18.7762 353.439 15.3732 355.622 13.1861C357.799 10.9177 361.36 10.9177 363.544 13.1861C365.72 15.3732 365.72 18.7762 363.458 21.0446C361.274 23.2317 357.885 23.2317 355.622 21.0446Z" fill="#0B23A9"/>
<path d="M316.253 24.2592H325.548L310.03 66.0634C305.297 78.5778 301.706 80.9705 290.231 80.9705L290.309 72.788C295.805 73.1113 298.876 70.4383 301.059 64.8482L301.462 64.0377L284.328 24.2592H293.865L305.908 53.6674L316.253 24.2592Z" fill="#0B23A9"/>
<path d="M376.343 59.6627C372.302 55.5306 370.281 50.5077 370.281 44.5124C370.281 38.4363 372.302 33.4128 376.343 29.3626C380.466 25.2304 385.557 23.2046 391.619 23.2046C399.459 23.2046 406.409 27.2561 409.643 33.6561L402.126 38.031C400.266 34.1427 396.387 31.793 391.538 31.793C387.981 31.793 384.992 33.0082 382.566 35.4386C380.223 37.869 379.01 40.8667 379.01 44.5124C379.01 48.158 380.223 51.1557 382.566 53.5867C384.992 56.0165 387.981 57.2324 391.538 57.2324C396.306 57.2324 400.348 54.8013 402.287 50.9937L409.804 55.2879C406.329 61.7692 399.459 65.8194 391.619 65.8194C385.557 65.8194 380.466 63.7943 376.343 59.6627Z" fill="#0B23A9"/>
<path d="M431.409 40.7047C437.632 42.082 445.714 44.675 445.553 53.3434C445.553 57.2324 444.017 60.3113 441.026 62.4985C438.036 64.6856 434.319 65.8201 429.793 65.8201C421.791 65.8201 415.891 62.2559 413.305 56.3412L420.821 51.9663C422.195 55.8552 425.186 57.7996 429.793 57.7996C434.399 57.7996 436.662 56.2598 436.662 53.2621C436.662 50.6697 433.267 49.1306 428.984 48.0773C422.923 46.5381 414.759 44.1078 414.921 35.6007C414.921 31.8737 416.295 28.8767 419.123 26.6082C421.952 24.3398 425.509 23.2053 429.712 23.2053C436.42 23.2053 441.835 26.3649 444.665 31.6311L437.309 35.7627C435.935 32.6843 433.348 31.1451 429.712 31.1451C426.398 31.1451 423.812 32.6036 423.812 35.4393C423.812 38.1124 427.206 39.4896 431.409 40.7047Z" fill="#0B23A9"/>
<path d="M243.132 57.4757C246.768 57.4757 249.84 56.2598 252.265 53.83C254.689 51.3183 255.902 48.2393 255.902 44.513C255.902 40.786 254.689 37.7071 252.265 35.2767C249.84 32.7656 246.768 31.5504 243.132 31.5504C239.495 31.5504 236.423 32.7656 233.998 35.2767C231.574 37.7071 230.362 40.786 230.362 44.513C230.362 48.2393 231.574 51.3183 233.998 53.83C236.423 56.2598 239.495 57.4757 243.132 57.4757ZM255.902 24.2591H264.63V64.7669H255.902V58.9335C252.588 63.5517 247.901 65.8201 241.758 65.8201C236.181 65.8201 231.493 63.7943 227.533 59.6634C223.572 55.5312 221.633 50.4271 221.633 44.513C221.633 38.5176 223.572 33.4948 227.533 29.3626C231.493 25.231 236.181 23.2053 241.758 23.2053C247.901 23.2053 252.588 25.4743 255.902 30.0112V24.2591Z" fill="#0B23A9"/>
<path d="M207.523 31.6019C209.649 26.7107 213.742 24.2651 219.644 24.2651V33.4955C216.418 33.2588 213.584 34.0475 211.144 35.8624C208.704 37.5979 207.523 40.517 207.523 44.5407V64.4224H199.023V24.9752H207.523V31.6019Z" fill="#0B23A9"/>
<path d="M49.7391 28.2945L49.7293 39.4551C49.7692 54.6858 37.3715 67.1144 22.2267 67.0953C16.211 67.0855 10.7351 65.2498 6.29688 62.0387C14.2594 76.3884 29.5293 86.0802 46.8897 86.0918C72.1107 86.0718 92.9558 65.4891 93.3514 40.1868L93.3453 40.0814C93.3688 39.4983 93.3445 28.7097 93.3732 28.2322C93.3401 16.2276 83.5486 6.36146 71.5725 6.39195C59.5408 6.37237 49.7004 16.1843 49.7391 28.2945Z" fill="url(#paint0_linear_1006_93721)"/>
<path d="M22.1977 17.6185C10.1735 17.6185 0.390625 27.4248 0.390625 39.4783C0.390625 51.5306 10.1735 61.3368 22.1977 61.3368C34.2226 61.3368 44.0047 51.5306 44.0047 39.4783C44.0047 27.4248 34.2226 17.6185 22.1977 17.6185Z" fill="#0B23A9"/>
</g>
<defs>
<linearGradient id="paint0_linear_1006_93721" x1="26.708" y1="85.3386" x2="76.7708" y2="30.0136" gradientUnits="userSpaceOnUse">
<stop stop-color="#09DBF0"/>
<stop offset="1" stop-color="#0B23A9"/>
</linearGradient>
</defs>
</svg>
